<svg width="1080" height="1920" viewBox="0 0 1080 1920" xmlns="http://www.w3.org/2000/svg">
  <!-- Background -->
  <rect width="1080" height="1920" fill="#f3f4f6"/>

  <!-- Status bar -->
  <rect width="1080" height="88" fill="#3b82f6"/>
  <text x="540" y="56" font-family="Arial, sans-serif" font-size="32" fill="white" text-anchor="middle">Forge</text>

  <!-- Header -->
  <rect y="88" width="1080" height="160" fill="#3b82f6"/>
  <text x="540" y="180" font-family="Arial, sans-serif" font-size="48" font-weight="bold" fill="white" text-anchor="middle">Welcome Back!</text>

  <!-- User card -->
  <rect x="60" y="300" width="960" height="200" rx="24" fill="white"/>
  <circle cx="160" cy="400" r="60" fill="#3b82f6"/>
  <text x="140" y="420" font-family="Arial, sans-serif" font-size="48" font-weight="bold" fill="white">F</text>
  <text x="260" y="380" font-family="Arial, sans-serif" font-size="36" font-weight="bold" fill="#1f2937">John Doe</text>
  <text x="260" y="430" font-family="Arial, sans-serif" font-size="28" fill="#6b7280">Active Member</text>

  <!-- Stats cards -->
  <rect x="60" y="540" width="460" height="180" rx="24" fill="white"/>
  <text x="290" y="620" font-family="Arial, sans-serif" font-size="56" font-weight="bold" fill="#3b82f6" text-anchor="middle">12</text>
  <text x="290" y="680" font-family="Arial, sans-serif" font-size="28" fill="#6b7280" text-anchor="middle">Workouts This Month</text>

  <rect x="560" y="540" width="460" height="180" rx="24" fill="white"/>
  <text x="790" y="620" font-family="Arial, sans-serif" font-size="56" font-weight="bold" fill="#10b981" text-anchor="middle">85%</text>
  <text x="790" y="680" font-family="Arial, sans-serif" font-size="28" fill="#6b7280" text-anchor="middle">Goal Progress</text>

  <!-- Recent activity -->
  <text x="60" y="800" font-family="Arial, sans-serif" font-size="36" font-weight="bold" fill="#1f2937">Recent Activity</text>

  <rect x="60" y="840" width="960" height="140" rx="20" fill="white"/>
  <text x="100" y="920" font-family="Arial, sans-serif" font-size="28" fill="#374151">Upper Body Workout - 45 min</text>

  <rect x="60" y="1000" width="960" height="140" rx="20" fill="white"/>
  <text x="100" y="1080" font-family="Arial, sans-serif" font-size="28" fill="#374151">Cardio Session - 30 min</text>

  <rect x="60" y="1160" width="960" height="140" rx="20" fill="white"/>
  <text x="100" y="1240" font-family="Arial, sans-serif" font-size="28" fill="#374151">Lower Body Workout - 50 min</text>

  <!-- Bottom CTA -->
  <rect x="60" y="1380" width="960" height="120" rx="60" fill="#3b82f6"/>
  <text x="540" y="1455" font-family="Arial, sans-serif" font-size="36" font-weight="bold" fill="white" text-anchor="middle">Message Your Trainer</text>
</svg>
